# xmcd CD database file
#
# Track frame offsets:
#	150
#	22545
#	51463
#	67615
#	86800
#	106690
#	127430
#	150810
#	170160
#	191228
#	211610
#	226170
#	247915
#	264843
#	279610
#	295995
#
# Disc length: 4310 seconds
#
# Revision: 2
# Processed by: cddbd v1.5.2PL0 Copyright (c) Steve Scherf et al.
# Submitted via: CDex 1.51
#
DISCID=d310d410
DTITLE=Gerry Mulligan Quartet - Vol. 022 -  Paris, Salle Pleyel June 1 1954
DYEAR=1960
DGENRE=Jazz
TTITLE0=I May Be Wrong
TTITLE1=Gold Rush
TTITLE2=Makin  Whoopee
TTITLE3=Laura
TTITLE4=Soft Shoes
TTITLE5=The Nearness Of You
TTITLE6=Love Me Or Leave Me
TTITLE7=Bernies Tune
TTITLE8=Walkin  Shoes
TTITLE9=Five Brothers
TTITLE10=Lullaby Of The Leaves
TTITLE11=Limelight
TTITLE12=Come Out Whereever You Are
TTITLE13=Moonlight In Vermont
TTITLE14=The Lady Is A Tramp
TTITLE15=Bark For Barksdale
EXTD=YEAR: 1960
EXTT0=Gerry Mulligan Quartet\nParis, Salle Pleyel, June 1, 1954\n\nGerry Mulligan (bars]\nBob Brookemeyer (valve tb]\nRed Mitchell (b]\nFrank Isola (d]\n\n(Ruskin-Sullivan]\n
EXTT1=Gerry Mulligan Quartet\nParis, Salle Pleyel, June 1, 1954\n\nGerry Mulligan (bars]\nBob Brookemeyer (valve tb]\nRed Mitchell (b]\nFrank Isola (d]\n\n(Mulligan]\n
EXTT2=Gerry Mulligan Quartet\nParis, Salle Pleyel, June 1, 1954\n\nGerry Mulligan (bars]\nBob Brookemeyer (valve tb]\nRed Mitchell (b]\nFrank Isola (d]\n\n(Kahn-Donaldson]\n
EXTT3=Gerry Mulligan Quartet\nParis, Salle Pleyel, June 1, 1954\n\nGerry Mulligan (bars]\nBob Brookemeyer (valve tb]\nRed Mitchell (b]\nFrank Isola (d]\n\n(Raskin-Mercer]\n
EXTT4=Gerry Mulligan Quartet\nParis, Salle Pleyel, June 1, 1954\n\nGerry Mulligan (bars]\nBob Brookemeyer (valve tb]\nRed Mitchell (b]\nFrank Isola (d]\n\n(Mulligan]\n
EXTT5=Gerry Mulligan Quartet\nParis, Salle Pleyel, June 1, 1954\n\nGerry Mulligan (bars]\nBob Brookemeyer (valve tb]\nRed Mitchell (b]\nFrank Isola (d]\n\n(Carmichael-Washington]\n
EXTT6=Gerry Mulligan Quartet\nParis, Salle Pleyel, June 1, 1954\n\nGerry Mulligan (bars]\nBob Brookemeyer (valve tb]\nRed Mitchell (b]\nFrank Isola (d]\n\n(Kahn-Donaldson]\n
EXTT7=Gerry Mulligan Quartet\nParis, Salle Pleyel, June 1, 1954\n\nGerry Mulligan (bars]\nBob Brookemeyer (valve tb]\nRed Mitchell (b]\nFrank Isola (d]\n\n(Miller]\n
EXTT8=Gerry Mulligan Quartet\nParis, Salle Pleyel, June 1, 1954\n\nGerry Mulligan (bars]\nBob Brookemeyer (valve tb]\nRed Mitchell (b]\nFrank Isola (d]\n\n(Mulligan]\n
EXTT9=Gerry Mulligan Quartet\nParis, Salle Pleyel, June 1, 1954\n\nGerry Mulligan (bars]\nBob Brookemeyer (valve tb]\nRed Mitchell (b]\nFrank Isola (d]\n\n(Mulligan]\n
EXTT10=Gerry Mulligan Quartet\nParis, Salle Pleyel, June 1, 1954\n\nGerry Mulligan (bars]\nBob Brookemeyer (valve tb]\nRed Mitchell (b]\nFrank Isola (d]\n\n(Patkere-Young]\n
EXTT11=Gerry Mulligan Quartet\nParis, Salle Pleyel, June 1, 1954\n\nGerry Mulligan (bars]\nBob Brookemeyer (valve tb]\nRed Mitchell (b]\nFrank Isola (d]\n\n(Mulligan]\n
EXTT12=Gerry Mulligan Quartet\nParis, Salle Pleyel, June 1, 1954\n\nGerry Mulligan (bars]\nBob Brookemeyer (valve tb]\nRed Mitchell (b]\nFrank Isola (d]\n\n(Styne-Cahn]\n
EXTT13=Gerry Mulligan Quartet\nParis, Salle Pleyel, June 1, 1954\n\nGerry Mulligan (bars]\nBob Brookemeyer (valve tb]\nRed Mitchell (b]\nFrank Isola (d]\n\n(Blackburn]\n
EXTT14=Gerry Mulligan Quartet\nParis, Salle Pleyel, June 1, 1954\n\nGerry Mulligan (bars]\nBob Brookemeyer (valve tb]\nRed Mitchell (b]\nFrank Isola (d]\n\n(Rodgers-Hart]\n
EXTT15=Gerry Mulligan Quartet\nParis, Salle Pleyel, June 1, 1954\n\nGerry Mulligan (bars]\nBob Brookemeyer (valve tb]\nRed Mitchell (b]\nFrank Isola (d]\n\n(Mulligan]\n
PLAYORDER=
